<svg xmlns="http://www.w3.org/2000/svg" xmlns:xlink="http://www.w3.org/1999/xlink" viewBox="0 0 382.03 367.99"><defs><style>.cls-1{isolation:isolate;}.cls-2{fill:url(#linear-gradient);}.cls-3{fill:#dce3e8;}.cls-4{fill:url(#linear-gradient-2);}.cls-5{fill:url(#linear-gradient-3);}.cls-6{fill:url(#linear-gradient-4);}.cls-7{fill:url(#linear-gradient-5);}.cls-33,.cls-41,.cls-8{mix-blend-mode:multiply;}.cls-9{fill:#d0dbe2;}.cls-10,.cls-12,.cls-13,.cls-40{mix-blend-mode:screen;}.cls-11{fill:#d84774;}.cls-12{fill:url(#linear-gradient-6);}.cls-13{fill:url(#linear-gradient-7);}.cls-14{fill:url(#linear-gradient-8);}.cls-15{fill:url(#linear-gradient-9);}.cls-16{fill:url(#linear-gradient-10);}.cls-17{fill:url(#linear-gradient-11);}.cls-18{fill:#2ea7f9;}.cls-19{fill:#3eb2f9;}.cls-20{fill:#2a9ef4;}.cls-21{fill:url(#linear-gradient-12);}.cls-22{fill:url(#linear-gradient-13);}.cls-23{fill:url(#linear-gradient-14);}.cls-24{fill:#2f8cea;}.cls-25{fill:url(#linear-gradient-15);}.cls-26{fill:url(#linear-gradient-16);}.cls-27{fill:#a5b7c6;}.cls-28{fill:#8da6b7;}.cls-29{fill:url(#linear-gradient-17);}.cls-30{fill:url(#linear-gradient-18);}.cls-31{fill:url(#linear-gradient-19);}.cls-32{fill:#f9fbfc;}.cls-33{fill:#f1f2f2;}.cls-34{fill:url(#linear-gradient-20);}.cls-35{fill:url(#linear-gradient-21);}.cls-36{fill:url(#linear-gradient-22);}.cls-37{fill:url(#linear-gradient-23);}.cls-38{fill:url(#linear-gradient-24);}.cls-39{fill:url(#linear-gradient-25);}.cls-40{fill:#2e77c3;}.cls-41{fill:#e6e7e8;}.cls-42{fill:url(#linear-gradient-26);}.cls-43{fill:#c3ced1;}.cls-44{fill:#a7b8bc;}.cls-45{fill:#293460;}.cls-46{fill:#cf1c68;}.cls-47{fill:#1f59c8;}.cls-48{fill:#3d4f89;}.cls-49{fill:url(#linear-gradient-27);}.cls-50{fill:#ffc8af;}.cls-51{fill:#f2b49c;}.cls-52{fill:#414042;}.cls-53{fill:#e0bd96;}.cls-54{fill:#338fe2;}.cls-55{fill:#845e40;}.cls-56{fill:#bd884c;}.cls-57{fill:#2477dc;}.cls-58{fill:url(#linear-gradient-28);}</style><linearGradient id="linear-gradient" x1="206.35" y1="315.44" x2="206.35" y2="405.13" gradientUnits="userSpaceOnUse"><stop offset="0" stop-color="#eef2f4"/><stop offset="1" stop-color="#cad4db"/></linearGradient><linearGradient id="linear-gradient-2" x1="530.06" y1="112.07" x2="530.06" y2="445.42" xlink:href="#linear-gradient"/><linearGradient id="linear-gradient-3" x1="530.07" y1="103.25" x2="530.07" y2="423.24" gradientUnits="userSpaceOnUse"><stop offset="0" stop-color="#2e77c3"/><stop offset="0.49" stop-color="#ff2274"/><stop offset="1" stop-color="#ffa163"/></linearGradient><linearGradient id="linear-gradient-4" x1="520.84" y1="219.14" x2="527.6" y2="428.62" xlink:href="#linear-gradient-3"/><linearGradient id="linear-gradient-5" x1="349.32" y1="283.92" x2="709.44" y2="283.92" xlink:href="#linear-gradient-3"/><linearGradient id="linear-gradient-6" x1="-873.31" y1="974.44" x2="-873.31" y2="908.19" gradientTransform="translate(-616.81 427.27) rotate(-135) scale(0.68 1)" gradientUnits="userSpaceOnUse"><stop offset="0"/><stop offset="0.3" stop-color="#2e3192"/><stop offset="0.7" stop-color="#92278f"/><stop offset="1" stop-color="#f24c88"/></linearGradient><linearGradient id="linear-gradient-7" x1="-1108.79" y1="1029.8" x2="-1108.79" y2="991.87" xlink:href="#linear-gradient-6"/><linearGradient id="linear-gradient-8" x1="605.31" y1="142.52" x2="642.98" y2="194.29" gradientTransform="translate(538.08 -472) rotate(67.19)" gradientUnits="userSpaceOnUse"><stop offset="0" stop-color="#ff4774"/><stop offset="1" stop-color="#8e004c"/></linearGradient><linearGradient id="linear-gradient-9" x1="213.75" y1="-645.67" x2="247.56" y2="-607.17" gradientTransform="translate(158.46 657.42) rotate(24.55)" xlink:href="#linear-gradient-8"/><linearGradient id="linear-gradient-10" x1="624.43" y1="140.69" x2="624.43" y2="194.31" gradientTransform="translate(-19.47 229.06) rotate(-20.45)" gradientUnits="userSpaceOnUse"><stop offset="0" stop-color="#f8e162"/><stop offset="1" stop-color="#ff8955"/></linearGradient><linearGradient id="linear-gradient-11" x1="395.51" y1="437.53" x2="395.51" y2="464.33" xlink:href="#linear-gradient"/><linearGradient id="linear-gradient-12" x1="393.01" y1="437.37" x2="393.01" y2="450.4" gradientUnits="userSpaceOnUse"><stop offset="0" stop-color="#2477dc"/><stop offset="1" stop-color="#1c49be"/></linearGradient><linearGradient id="linear-gradient-13" x1="675.29" y1="437.53" x2="675.29" y2="464.33" xlink:href="#linear-gradient"/><linearGradient id="linear-gradient-14" x1="645.85" y1="413.41" x2="670.61" y2="413.41" xlink:href="#linear-gradient-12"/><linearGradient id="linear-gradient-15" x1="75.38" y1="413.02" x2="100.14" y2="413.02" gradientTransform="matrix(-1, 0, 0, 1, 779, 0)" xlink:href="#linear-gradient-12"/><linearGradient id="linear-gradient-16" x1="659.42" y1="405.71" x2="686.81" y2="405.71" xlink:href="#linear-gradient-12"/><linearGradient id="linear-gradient-17" x1="505.91" y1="169.04" x2="569.55" y2="169.04" xlink:href="#linear-gradient-12"/><linearGradient id="linear-gradient-18" x1="571.76" y1="397.71" x2="609.79" y2="397.71" gradientUnits="userSpaceOnUse"><stop offset="0" stop-color="#ea4774"/><stop offset="1" stop-color="#be0060"/></linearGradient><linearGradient id="linear-gradient-19" x1="465.67" y1="397.71" x2="503.7" y2="397.71" xlink:href="#linear-gradient-18"/><linearGradient id="linear-gradient-20" x1="150.87" y1="280.78" x2="246.49" y2="280.78" xlink:href="#linear-gradient-12"/><linearGradient id="linear-gradient-21" x1="498.33" y1="413.01" x2="577.14" y2="413.01" xlink:href="#linear-gradient-12"/><linearGradient id="linear-gradient-22" x1="547.66" y1="401.59" x2="527.29" y2="436.87" xlink:href="#linear-gradient-12"/><linearGradient id="linear-gradient-23" x1="164.65" y1="154.25" x2="232.71" y2="154.25" xlink:href="#linear-gradient-18"/><linearGradient id="linear-gradient-24" x1="509.76" y1="256.52" x2="565.71" y2="256.52" gradientTransform="translate(663.84 -325.76) rotate(76.72)" xlink:href="#linear-gradient-12"/><linearGradient id="linear-gradient-25" x1="524.98" y1="234.43" x2="550.48" y2="278.61" gradientTransform="translate(663.84 -325.76) rotate(76.72)" gradientUnits="userSpaceOnUse"><stop offset="0" stop-color="#2477dc"/><stop offset="1" stop-color="#1c2bbe"/></linearGradient><linearGradient id="linear-gradient-26" x1="530.06" y1="398.77" x2="545.4" y2="398.77" xlink:href="#linear-gradient-18"/><linearGradient id="linear-gradient-27" x1="514.33" y1="358.91" x2="515.08" y2="358.91" xlink:href="#linear-gradient-18"/><linearGradient id="linear-gradient-28" x1="613.01" y1="363.05" x2="639.24" y2="363.05" xlink:href="#linear-gradient-18"/></defs><title>top</title><g class="cls-1"><g id="OBJECTS"><rect class="cls-2" x="61.62" y="354.17" width="289.44" height="13.82" rx="6.91"/><rect class="cls-3" x="140" y="339.28" width="153.8" height="27.04" rx="8.57"/><path class="cls-4" d="M464.09,111.18c43.63,2.92,104.37,7,144.67,9.76a59.7,59.7,0,0,1,53.58,43.94L694.7,284.09a59.79,59.79,0,0,0,7,16l9.55,15.3A59.72,59.72,0,0,1,701,390.89l-24.34,22.43A59.69,59.69,0,0,1,639.88,429l-200.43,12.3a59.72,59.72,0,0,1-59.65-38.85l-36.22-97.78a59.7,59.7,0,0,1,21-69.12l7.39-5.35a59.68,59.68,0,0,0,23.82-38.13l5.5-31.57A59.7,59.7,0,0,1,464.09,111.18Z" transform="translate(-339.05 -102.26)"/><path class="cls-5" d="M717.53,377.3A50.18,50.18,0,0,1,670.92,409a51.29,51.29,0,0,1-6.4-.41l-94.86-12.16a50.1,50.1,0,0,0-14,.18l-144,22.25a50.18,50.18,0,0,1-56.13-36.62L340.76,327a50.17,50.17,0,0,1,19.11-53.65c1-.71,2-1.37,3-2l39.39-24.32a50.15,50.15,0,0,0,22.63-31.8l16.39-73.71a50.17,50.17,0,0,1,53.83-39.05l133,12.92a50.18,50.18,0,0,1,45.32,49.94v99a50.15,50.15,0,0,0,11.17,31.56l23.46,29,1.86,2.3A50.15,50.15,0,0,1,717.53,377.3Z" transform="translate(-339.05 -102.26)"/><path class="cls-6" d="M708.05,324.91c-13.21,3.09-26.38,19.51-46.53,19-21.71-.57-27.44-26.16-54.73-25.17-17.44.64-32.15,26.67-69.74,27.14-25,.31-47.16-18.9-67.53-20.51s-40.56,14.28-70,11.06c-25.46-2.79-33.17-27.53-59.74-31.06a50.08,50.08,0,0,1,20.05-32c11.13.53,21.46,1.4,31.38,1.76,24.14.88,24.61-25.9,50.6-25.94s39.27,38.91,53.37,41.65,34.76-14.64,67-24,49.21,27.49,74.11,22.7c19-3.67,17-26,37.1-38.13v12.93a50.15,50.15,0,0,0,11.17,31.56Z" transform="translate(-339.05 -102.26)"/><path class="cls-7" d="M684.59,295.91a50.15,50.15,0,0,1-11.17-31.56V252.21A45.56,45.56,0,0,0,658.2,250c-38.29.7-31.49,29.56-50.94,32s-30.71-26.82-56-21.19-42.14,18-52.88,15.21-19.06-33.53-39.12-34.79-21.75,19.39-40.33,17.51c-9.32-.93-19.06-2.48-29.86-3.52l-26.15,16.14a50.05,50.05,0,0,0-13.55,12.28,47.24,47.24,0,0,1,17.75-4.81c29.85-1.69,32.66,23.65,55.19,27.6s38.89-7.32,54.53-5.07,31.81,18.17,51.09,19.17c29,1.5,41.67-17.86,55.16-17.48,21.1.59,24.25,20.61,41,22.13s28.18-12.56,39.25-12.56c16.76,0,26.72,12,46.17,14Z" transform="translate(-339.05 -102.26)"/><g class="cls-8"><circle class="cls-9" cx="250.33" cy="181.87" r="3.04"/><path class="cls-9" d="M650.44,350a1.76,1.76,0,1,1-1.76-1.76A1.76,1.76,0,0,1,650.44,350Z" transform="translate(-339.05 -102.26)"/><path class="cls-9" d="M650.44,297.19a3.52,3.52,0,1,1-3.51-3.52A3.51,3.51,0,0,1,650.44,297.19Z" transform="translate(-339.05 -102.26)"/><circle class="cls-9" cx="311.39" cy="140.7" r="2.98"/><path class="cls-9" d="M544.92,113.87a2.48,2.48,0,1,1-2.47-2.47A2.46,2.46,0,0,1,544.92,113.87Z" transform="translate(-339.05 -102.26)"/><circle class="cls-9" cx="332.07" cy="194.92" r="1.37"/><path class="cls-9" d="M465,275.71a1.37,1.37,0,1,1-1.37-1.36A1.37,1.37,0,0,1,465,275.71Z" transform="translate(-339.05 -102.26)"/><path class="cls-9" d="M690.5,377.86a4.3,4.3,0,1,1-4.3-4.3A4.31,4.31,0,0,1,690.5,377.86Z" transform="translate(-339.05 -102.26)"/><circle class="cls-9" cx="253.1" cy="281.08" r="2.77"/><circle class="cls-9" cx="44.63" cy="230.75" r="2.54"/><path class="cls-9" d="M579.2,161.55a3.14,3.14,0,1,1-3.14-3.13A3.15,3.15,0,0,1,579.2,161.55Z" transform="translate(-339.05 -102.26)"/><path class="cls-9" d="M623.79,142.89a3.49,3.49,0,1,1-3.49-3.49A3.49,3.49,0,0,1,623.79,142.89Z" transform="translate(-339.05 -102.26)"/><path class="cls-9" d="M430.56,235.74a2.81,2.81,0,1,1-2.8-2.81A2.81,2.81,0,0,1,430.56,235.74Z" transform="translate(-339.05 -102.26)"/><path class="cls-9" d="M455,141.3a1.6,1.6,0,1,1-1.6-1.6A1.6,1.6,0,0,1,455,141.3Z" transform="translate(-339.05 -102.26)"/><circle class="cls-9" cx="153.37" cy="71.4" r="5.77"/><circle class="cls-9" cx="18.1" cy="214.7" r="5.77"/><path class="cls-9" d="M530.71,192.81a2.84,2.84,0,1,1-2.84-2.84A2.84,2.84,0,0,1,530.71,192.81Z" transform="translate(-339.05 -102.26)"/><circle class="cls-9" cx="194.65" cy="130.67" r="2.8"/><path class="cls-9" d="M437.82,368.82a2.27,2.27,0,1,1-2.27-2.27A2.27,2.27,0,0,1,437.82,368.82Z" transform="translate(-339.05 -102.26)"/></g><g class="cls-10"><polygon class="cls-11" points="282.81 125.84 280.73 126.98 279.59 129.05 278.46 126.98 276.38 125.84 278.46 124.7 279.59 122.63 280.73 124.7 282.81 125.84"/><polygon class="cls-11" points="69.23 298.15 67.16 299.29 66.02 301.37 64.88 299.29 62.81 298.15 64.88 297.02 66.02 294.94 67.16 297.02 69.23 298.15"/><polygon class="cls-11" points="105.41 164.78 103.33 165.91 102.2 167.99 101.06 165.91 98.98 164.78 101.06 163.64 102.2 161.56 103.33 163.64 105.41 164.78"/><polygon class="cls-11" points="369.57 262.63 367.5 263.77 366.36 265.85 365.22 263.77 363.15 262.63 365.22 261.5 366.36 259.42 367.5 261.5 369.57 262.63"/><polygon class="cls-11" points="133.44 52.7 131.36 53.84 130.22 55.91 129.09 53.84 127.01 52.7 129.09 51.56 130.22 49.48 131.36 51.56 133.44 52.7"/><polygon class="cls-11" points="47.87 266.91 46.76 267.52 46.15 268.63 45.55 267.52 44.44 266.91 45.55 266.31 46.15 265.2 46.76 266.31 47.87 266.91"/><polygon class="cls-11" points="159.05 293.71 157.94 294.32 157.33 295.43 156.73 294.32 155.62 293.71 156.73 293.11 157.33 292 157.94 293.11 159.05 293.71"/><polygon class="cls-11" points="32.34 291.5 31.23 292.1 30.62 293.21 30.02 292.1 28.91 291.5 30.02 290.89 30.62 289.78 31.23 290.89 32.34 291.5"/><polygon class="cls-11" points="228.68 76.44 227.57 77.04 226.97 78.15 226.36 77.04 225.25 76.44 226.36 75.83 226.97 74.72 227.57 75.83 228.68 76.44"/><polygon class="cls-11" points="326.34 122.63 324.27 123.76 323.13 125.84 321.99 123.76 319.92 122.63 321.99 121.49 323.13 119.41 324.27 121.49 326.34 122.63"/><polygon class="cls-11" points="262.59 227.78 261.48 228.38 260.87 229.49 260.27 228.38 259.16 227.78 260.27 227.17 260.87 226.06 261.48 227.17 262.59 227.78"/><polygon class="cls-11" points="328.98 149.18 327.88 149.78 327.27 150.89 326.66 149.78 325.56 149.18 326.66 148.57 327.27 147.46 327.88 148.57 328.98 149.18"/><polygon class="cls-11" points="69.45 186.14 68.34 186.75 67.73 187.86 67.13 186.75 66.02 186.14 67.13 185.54 67.73 184.43 68.34 185.54 69.45 186.14"/><polygon class="cls-11" points="305.27 41.16 304.16 41.76 303.55 42.87 302.95 41.76 301.84 41.16 302.95 40.55 303.55 39.44 304.16 40.55 305.27 41.16"/><polygon class="cls-11" points="330.7 283.55 329.59 284.15 328.98 285.26 328.38 284.15 327.27 283.55 328.38 282.94 328.98 281.83 329.59 282.94 330.7 283.55"/><polygon class="cls-11" points="180.76 49.37 179.65 49.98 179.04 51.09 178.44 49.98 177.33 49.37 178.44 48.77 179.04 47.66 179.65 48.77 180.76 49.37"/><polygon class="cls-11" points="162.47 7.42 161.37 8.03 160.76 9.13 160.15 8.03 159.05 7.42 160.15 6.81 160.76 5.7 161.37 6.81 162.47 7.42"/></g><path class="cls-12" d="M444.22,199c1-1,46.2-45.11,46.87-44.44s-43.45,45.88-44.44,46.87-2.34,1.25-3,.58S443.23,200,444.22,199Z" transform="translate(-339.05 -102.26)"/><path class="cls-13" d="M615.46,254.05c.57-.57,26.46-25.83,26.84-25.45s-24.88,26.27-25.45,26.84-1.34.71-1.72.33S614.9,254.61,615.46,254.05Z" transform="translate(-339.05 -102.26)"/><circle class="cls-14" cx="624.6" cy="169.04" r="21.41" transform="translate(90.89 683.88) rotate(-87.64)"/><path class="cls-15" d="M628.41,149.93a5.32,5.32,0,0,0,1,1.1c1,.82,2.53.35,3.42,1,.59.46.62,1.56,1.41,1.9s1.87-.32,2.61-.1c.42.13.53.33.87.51.71.37,1.66,1.5,2.47,1.64a3.86,3.86,0,0,0,1.23-.07,21.06,21.06,0,0,0-13.11-7.81,2.27,2.27,0,0,1,.44.84C628.8,149.3,628.31,149.6,628.41,149.93Zm-11.76,2.7c.68.57,2.36.8,2.75,1.34s-.18,1.2.78,1.82c.62.4,1.53.34,2.22.62,1.32.54,1.5,1.53,2.39,2.45,1.42,1.45,3.34,1.3,5.15,1.1a3.71,3.71,0,0,1,2.89.41c.88.57.94.89,2.15,1,1.38.18,3.55.32,4.74-.55-1.53-.49-2.45-.16-3.73-1.45s-1.36-1.58-3.13-1.35c-3.1.4-3.12-1.89-4.76-3.82-.52-.62-1.07-.4-1.81-.95-.52-.39-.38-1.14-.73-1.51s-.45-.24-1.07-.48a3.35,3.35,0,0,1-2.53-3c0-.13,0-.24,0-.37a21.51,21.51,0,0,0-5,1.25v.06c0,.16-.46.66-.56.89C615.84,151.35,615.73,151.86,616.65,152.63Zm16.62,17.44c-1.39-.07-2.18-1.49-3.7-1.58-1-.05-1.57.51-2.53.56a8,8,0,0,1-4.84-1.78c-.55-.55-.15-.82-1.13-1a2.32,2.32,0,0,0-.83,0,7.3,7.3,0,0,1-2.75.18,6.74,6.74,0,0,1,3.23,2.44c1.26,1.78,2.22,2.26,4.5,2.32,1,0,2.11-.23,2.81.3.52.39.76,1.25,1.3,1.68a13.34,13.34,0,0,0,3.06,1.55c1.52.62,2.84,0,4.37-.27,1.81-.34,1.36.4,2.66,1.2s3.58.18,4.84-.69a7.53,7.53,0,0,1,1.12-.71,21.09,21.09,0,0,0,.6-5.45c-.65-.27-1.19-.8-2-.75s-1.4,1.29-2.28,1.61c-1.69.6-2.28-1.25-3.84-1.28S634.84,170.16,633.27,170.07ZM608.51,165c1.75.26,3.51,1.11,5.3,1.2-.66-1-1.86-1.11-2.57-2-1.07-1.25.07-3.25-.82-4.43-.67-.89-2.51-.92-3.18-1.89a3,3,0,0,1-.34-.7,22.12,22.12,0,0,0-1.78,3.12c-.13.29-.23.58-.34.87a5.32,5.32,0,0,0,.77,1.38C606.37,163.61,607.08,164.73,608.51,165Zm7.94,22.93c0-1.13-2.8-2.36-3.83-2.64a4.08,4.08,0,0,1-2-1,5.76,5.76,0,0,0-2-.83,21.2,21.2,0,0,0,14.23,7.13l-.11-.08C621,189.32,618.53,187.93,616.45,187.88Zm19.67-6c-.4.15-.57.63-1,.75-1,.25-2-.75-2.9-.91.46,1.07,2,1.61,3,1.93a19.25,19.25,0,0,0,4,1.09h.12a21.68,21.68,0,0,0,2.08-2.29c-1,0-1.92-.47-3-.58A6.13,6.13,0,0,0,636.12,181.91ZM627,183.12a9.36,9.36,0,0,0-3.13-1,11.1,11.1,0,0,1-3.78-1.42c-.58-.39-1.23-1.72-1.79-1.91-.34-.12-1.09.28-1.51.23-1.32-.14-2.92-1.58-3.87-2.43s-1.1-1.78-1.78-2.46c-.49-.5-.82-.31-1.46-.48-2-.54-1.13-1.68-2-3.19-.76-1.23-2.73-1.71-4.37-2.29a21.41,21.41,0,0,0,.28,4.67,4.13,4.13,0,0,1,.58.52,14.7,14.7,0,0,1,1,1.88c.86,1.31,2.24,1.21,3.23,2.32,1.26,1.4,1.89,3,3.64,4,2.24,1.25,4.08.27,6.27.94,2.36.72,3.19,2.82,5.85,2.83,2.14,0,4.91.28,6.83-.61C629.61,184.06,628.25,183.85,627,183.12Z" transform="translate(-339.05 -102.26)"/><path class="cls-16" d="M648.23,173.37c-.75-.66-1.53-1.32-2.36-2a18.44,18.44,0,0,1-.42,2.45c7.41,7.12,5.52,11.31-4.69,9.43l-.15,0c-10.78-2-26.65-10-35.53-17.79-.48-.42-.93-.84-1.34-1.24-7.4-7.12-5.51-11.3,4.7-9.43a.76.76,0,0,0,.16,0,16,16,0,0,1,1.74-1.75,50.8,50.8,0,0,0-5.32-1.27c-13-2.39-14.86,3.38-4,12.91.74.65,1.52,1.31,2.35,2A113.09,113.09,0,0,0,638.86,185c1.86.53,3.64,1,5.31,1.26C657.23,188.67,659,182.89,648.23,173.37Z" transform="translate(-339.05 -102.26)"/><path class="cls-17" d="M430.33,453.23H360.69a2.07,2.07,0,0,1-2.07-2.06h0a2.07,2.07,0,0,1,2.07-2.07h69.64a2.07,2.07,0,0,1,2.06,2.07h0A2.07,2.07,0,0,1,430.33,453.23Z" transform="translate(-339.05 -102.26)"/><path class="cls-18" d="M398.2,447.62c8.34-4.41,26.94-5.62,32.41-13.3a11.9,11.9,0,0,0,2.48-5.74,5.53,5.53,0,0,0-2.54-5.4c-1.51-.81-3.52-.72-4.71-1.95a3.82,3.82,0,0,1-.49-4.06,10.15,10.15,0,0,1,2.69-3.33c2.63-2.4,5.53-4.74,6.9-8s.45-7.86-2.87-9.12c-1.95-.74-4.43-.28-5.91-1.75s-1.07-3.76,0-5.42,2.6-2.9,3.75-4.48a10.33,10.33,0,0,0-4.48-15.61Z" transform="translate(-339.05 -102.26)"/><path class="cls-19" d="M398.2,447.62C394.4,439,380.55,426.5,381,417.08a12.13,12.13,0,0,1,1.61-6,5.57,5.57,0,0,1,5.35-2.66c1.69.3,3.21,1.62,4.91,1.39a3.8,3.8,0,0,0,2.9-2.87,10.18,10.18,0,0,0,0-4.29c-.58-3.51-1.4-7.15-.44-10.58s4.52-6.44,7.92-5.37c2,.63,3.64,2.53,5.72,2.3s3.17-2.29,3.39-4.22-.25-3.9-.16-5.85a10.34,10.34,0,0,1,13.2-9.46Z" transform="translate(-339.05 -102.26)"/><path class="cls-19" d="M422.18,383.58l8-4.25a.49.49,0,0,0,.2-.67.49.49,0,0,0-.67-.21l-8,4.25a.5.5,0,0,0-.21.68.5.5,0,0,0,.68.2" transform="translate(-339.05 -102.26)"/><path class="cls-20" d="M419.54,382.48l-3.26-8.54a.5.5,0,0,0-.94.35l3.27,8.55a.5.5,0,1,0,.93-.36" transform="translate(-339.05 -102.26)"/><path class="cls-20" d="M409.28,408.5l-8.1-16.75a.5.5,0,1,0-.9.43l8.1,16.76a.5.5,0,0,0,.9-.44" transform="translate(-339.05 -102.26)"/><path class="cls-20" d="M402.59,431.79l-15.68-17.36a.5.5,0,1,0-.74.67l15.68,17.36a.48.48,0,0,0,.7,0,.5.5,0,0,0,0-.71" transform="translate(-339.05 -102.26)"/><path class="cls-19" d="M414.61,410.43l18-8.27a.52.52,0,0,0,.25-.67.5.5,0,0,0-.67-.24l-18,8.27a.5.5,0,1,0,.41.91" transform="translate(-339.05 -102.26)"/><path class="cls-19" d="M405.87,434.16l24.71-7a.5.5,0,0,0,.35-.61.51.51,0,0,0-.62-.35l-24.71,7a.5.5,0,0,0,.27,1" transform="translate(-339.05 -102.26)"/><path class="cls-18" d="M384.26,449.83c1.25-6.6,8.84-17.51,7-24a8.62,8.62,0,0,0-2.1-3.94,4,4,0,0,0-4.14-1c-1.12.49-2,1.65-3.18,1.76a2.68,2.68,0,0,1-2.47-1.53,7.18,7.18,0,0,1-.67-3c-.17-2.53-.18-5.19-1.41-7.41s-4.17-3.74-6.35-2.45c-1.28.76-2.13,2.35-3.6,2.52s-2.57-1.07-3-2.38-.46-2.75-.83-4.08A7.36,7.36,0,0,0,352.77,400Z" transform="translate(-339.05 -102.26)"/><path class="cls-19" d="M384.26,449.83c-6.5-1.71-19.6.45-24.64-4a8.5,8.5,0,0,1-2.65-3.58,4,4,0,0,1,.89-4.16c.93-.81,2.33-1.06,3-2.11a2.7,2.7,0,0,0-.31-2.89,7.44,7.44,0,0,0-2.41-1.89c-2.21-1.24-4.61-2.39-6.08-4.45s-1.59-5.38.52-6.8c1.23-.82,3-.91,3.82-2.16s.13-2.78-.85-3.77-2.28-1.59-3.33-2.51a7.36,7.36,0,0,1,.59-11.55Z" transform="translate(-339.05 -102.26)"/><path class="cls-19" d="M359.23,408l1.18-6.33a.35.35,0,0,0-.29-.41.35.35,0,0,0-.41.28l-1.18,6.33a.36.36,0,0,0,.29.42.35.35,0,0,0,.41-.29" transform="translate(-339.05 -102.26)"/><path class="cls-20" d="M357.45,409l-6.21-2a.35.35,0,0,0-.45.23.35.35,0,0,0,.23.44l6.21,2a.36.36,0,0,0,.22-.68" transform="translate(-339.05 -102.26)"/><path class="cls-20" d="M367.39,426.29l-12.94-2.93a.35.35,0,1,0-.15.69L367.23,427a.35.35,0,0,0,.42-.27.34.34,0,0,0-.26-.42" transform="translate(-339.05 -102.26)"/><path class="cls-20" d="M377.39,440.36l-16.64,1a.36.36,0,0,0-.33.38.35.35,0,0,0,.38.33l16.64-1a.36.36,0,0,0,.33-.38.35.35,0,0,0-.38-.33" transform="translate(-339.05 -102.26)"/><path class="cls-19" d="M370.83,424.17l3.4-13.72a.36.36,0,1,0-.69-.17L370.14,424a.36.36,0,0,0,.69.17" transform="translate(-339.05 -102.26)"/><path class="cls-19" d="M380.17,439.58l7.09-16.87a.35.35,0,0,0-.19-.46.36.36,0,0,0-.47.19l-7.09,16.86a.36.36,0,0,0,.2.47.35.35,0,0,0,.46-.19" transform="translate(-339.05 -102.26)"/><path class="cls-21" d="M412.64,451.27c4.22-2.58,6.11-6.49,5.19-8.44-1-2.11-6-3.24-11.25-.43.18-.8,2.76-13,0-14-2.21-.86-6.77,5.84-7.78,7.35q1.53-13.2-.65-13.84-1.59-.47-5.19,5.84-1.31-4.54-2.59-4.54-2.52,0-5,17.51c-.81-4.26-2.51-11.86-4.76-11.89-2.8,0-5,11.79-5.62,15.35q-5.47-5.76-6.7-5-1.56,1,3.67,12.54Z" transform="translate(-339.05 -102.26)"/><path class="cls-22" d="M697.06,453.23H653.53a2.07,2.07,0,0,1-2.07-2.06h0a2.07,2.07,0,0,1,2.07-2.07h43.53a2.07,2.07,0,0,1,2.06,2.07h0A2.07,2.07,0,0,1,697.06,453.23Z" transform="translate(-339.05 -102.26)"/><path class="cls-23" d="M666.23,420.58c-.58,2.75-4.11,4.06-6.59,3.83a11.16,11.16,0,0,1-8.88-6.26c-1.33-2.85-.78-6.23-1.25-9.28-.33-2.15-1.56-5.81-3.66-6.48,1.39,0,2.92.91,4.35,1.08,2.69.32,5.36.21,8.06.3,4.34.15,8.93.45,11.21,4.68a10.46,10.46,0,0,1,.47,8.43c-.5,1.23-2.57,4.17-3.86,3.7" transform="translate(-339.05 -102.26)"/><path class="cls-24" d="M671.83,430.61c-.35-1.11-.93-2.18-1.33-3.29-.45-1.28-3.33-7.06-4-8.27l0-.11c1.67-2.47,3.18-5.23,2.84-8.31,0-.09-.15-.08-.15,0,.05,3.1-1.22,5.55-2.82,8.07-.27-.51-.54-1-.83-1.52a11.78,11.78,0,0,0,1.91-4c.38-1.39,1-3,.88-4.46,0-.07-.1-.05-.09,0,.16,1.51-.58,3.34-1.05,4.78a10.45,10.45,0,0,1-.95,2.2c-.26.42-.57.8-.86,1.19-.23-.38-.47-.77-.72-1.14.12-.21.21-.44.31-.65a22.35,22.35,0,0,0,1.12-2.73,17.33,17.33,0,0,0,1-5.39c0-.05-.09-.06-.09,0a16.21,16.21,0,0,1-1,4.92c-.24.66-.5,1.32-.79,2a11.33,11.33,0,0,1-.76,1.6c-.34-.51-.71-1-1.09-1.46a22.26,22.26,0,0,0,1.6-4,6.73,6.73,0,0,0,.39-3.83s-.06,0-.05,0a6.9,6.9,0,0,1-.62,4.06,24.92,24.92,0,0,1-1.52,3.52c-.19-.23-.4-.46-.61-.68l-.45-.44a36.62,36.62,0,0,0,1.25-3.51,12,12,0,0,0,.13-4.06c0-.08-.13-.06-.12,0a13.85,13.85,0,0,1-.37,4.35c-.29,1-.74,2-1.11,3-.37-.35-.75-.68-1.14-1A16.31,16.31,0,0,0,662,405c0-.12-.18-.13-.18,0a17,17,0,0,1-.36,3.69,21,21,0,0,1-.94,2.59h0l-.06-.05c-.47-.37-1-.73-1.43-1.08.83-1.62.61-3.68.5-5.43,0-.06-.09,0-.08,0a11.6,11.6,0,0,1-.59,5.3l-1.13-.75a10.93,10.93,0,0,0,.22-4.79s-.05,0,0,0a11.55,11.55,0,0,1-.29,4.71c-.53-.34-1.06-.67-1.61-1a4.85,4.85,0,0,0,.4-3.62c0-.05-.1,0-.08,0a4.68,4.68,0,0,1-.09,2.46,8.67,8.67,0,0,0-.32,1.09c-.43-.26-.87-.51-1.31-.76h0l0,0a6.22,6.22,0,0,0,.13-2.78c0-.05-.1,0-.09,0a5.21,5.21,0,0,1-.13,2.71l-1.06-.58v0a7.73,7.73,0,0,0,0-2h0a9.64,9.64,0,0,1-.07,1.94h0l-1.21-.65a4.73,4.73,0,0,0-.1-1.59,0,0,0,1,0-.07,0,4.84,4.84,0,0,1,0,1.52l-.09-.05,0,0-2.25-1.23h0c.71.43,1.44.85,2.18,1.27a3,3,0,0,1-1.82.69c-.08,0-.09.12,0,.12a3.13,3.13,0,0,0,1.93-.76l.1.06a.13.13,0,0,0,0,.06c0,.08.12.09.13,0l1.08.62c-.89.43-1.57,1.15-2.64,1.17-.07,0-.08.1,0,.1a5.8,5.8,0,0,0,2.78-1.19v0c0,.08.1.13.12.05h0l1,.6s0,0,0,.06h0a4.5,4.5,0,0,1-3.35,1.6s0,.07,0,.07a3.9,3.9,0,0,0,3.51-1.65l1.24.75c-1,1-2.08,2.52-3.59,2.48-.08,0-.09.12,0,.12,1.57,0,2.69-1.53,3.72-2.51a.06.06,0,0,0,.08,0c.5.3,1,.62,1.46,1-1,2.27-3.78,2.83-5.91,3.52-.11,0-.06.2,0,.16,2.18-.73,5-1.27,6-3.6h0s0,.05.06.05c.33.23.66.46,1,.7a12.23,12.23,0,0,1-3,2.8,8.2,8.2,0,0,1-4.26,1.49,0,0,0,0,0,0,.09,7.38,7.38,0,0,0,4.2-1.32,12.27,12.27,0,0,0,3.24-2.94c.47.36.92.73,1.36,1.12a17.51,17.51,0,0,1-3.44,3.22,13.25,13.25,0,0,1-4.85,1.66c-.09,0-.06.14,0,.13a12.37,12.37,0,0,0,4.92-1.61,19.41,19.41,0,0,0,3.56-3.21l.07.06s0,0,.05.06c.39.36.76.74,1.12,1.14a19,19,0,0,1-3.78,3.71c-1.63,1.23-3.54,1.43-5.5,1.76,0,0,0,.09,0,.09a11.05,11.05,0,0,0,5.32-1.49,20.15,20.15,0,0,0,4.08-3.75.17.17,0,0,0,.14,0c.16.19.33.39.48.59s.27.37.4.55a15.08,15.08,0,0,1-3.58,4.05c-1.48,1.19-3.13,1.33-4.85,1.91-.07,0,0,.13,0,.1,1.85-.58,3.51-.69,5.08-2a24.53,24.53,0,0,0,2-2A13.65,13.65,0,0,0,663,414.7c.37.55.71,1.13,1,1.72-2,2.34-4.34,6.3-7.87,5.51a0,0,0,0,0,0,.08c3.22.79,6.26-2.77,8.09-5.2.25.48.47,1,.69,1.45a11.11,11.11,0,0,1-6,4.65s0,.1,0,.08a9.14,9.14,0,0,0,4-2.19,12.22,12.22,0,0,0,2.09-2.21c.22.5.43,1,.63,1.51a9.15,9.15,0,0,1-1.55,1.79,13.33,13.33,0,0,1-2.47,1.52c-.07,0,0,.16.05.12a13.31,13.31,0,0,0,2.52-1.5,9.49,9.49,0,0,0,1.54-1.69l.12.3c.43,1.15,3.11,6.85,3.48,8a4.92,4.92,0,0,0,1.48,2.7C671.32,431.72,672,431.13,671.83,430.61Z" transform="translate(-339.05 -102.26)"/><path class="cls-25" d="M683.24,420.19c.59,2.74,4.12,4.05,6.6,3.83a11.18,11.18,0,0,0,8.88-6.26c1.33-2.85.78-6.23,1.25-9.29.33-2.14,1.56-5.8,3.65-6.47-1.38,0-2.91.91-4.34,1.08-2.7.32-5.36.21-8.07.3-4.33.15-8.92.45-11.21,4.67a10.5,10.5,0,0,0-.46,8.43c.5,1.24,2.56,4.18,3.86,3.71" transform="translate(-339.05 -102.26)"/><path class="cls-24" d="M677.65,430.22c.35-1.11.93-2.18,1.32-3.29.46-1.28,3.34-7.07,4-8.28l.06-.1c-1.67-2.47-3.18-5.23-2.85-8.32,0-.08.16-.08.15,0,0,3.1,1.23,5.54,2.83,8.06.27-.5.54-1,.83-1.51a12,12,0,0,1-1.92-4c-.38-1.4-1-3-.88-4.47,0-.06.11-.05.1,0-.16,1.52.58,3.35,1,4.78a9.76,9.76,0,0,0,1,2.2c.26.42.57.8.86,1.2.23-.39.47-.77.71-1.15-.11-.2-.21-.43-.31-.64a26.05,26.05,0,0,1-1.12-2.73,17.37,17.37,0,0,1-1-5.39,0,0,0,0,1,.09,0,16,16,0,0,0,1,4.92c.24.66.49,1.32.79,2a13.06,13.06,0,0,0,.75,1.6c.35-.51.71-1,1.1-1.47a21,21,0,0,1-1.6-4,6.8,6.8,0,0,1-.4-3.83s.06,0,.06,0a6.86,6.86,0,0,0,.62,4.05,24.5,24.5,0,0,0,1.51,3.53c.2-.23.4-.46.62-.68a6.25,6.25,0,0,1,.45-.44,36.68,36.68,0,0,1-1.26-3.51,12.3,12.3,0,0,1-.13-4.06c0-.09.13-.06.13,0a13.85,13.85,0,0,0,.37,4.35c.29,1,.73,2,1.11,3,.37-.35.75-.68,1.14-1a16.17,16.17,0,0,1-1.27-6.45c0-.12.18-.13.18,0a17,17,0,0,0,.35,3.7,23.58,23.58,0,0,0,1,2.59h0a.1.1,0,0,1,.06-.05c.46-.37.94-.73,1.43-1.08-.84-1.63-.61-3.68-.51-5.43a0,0,0,0,1,.09,0,11.62,11.62,0,0,0,.59,5.3c.37-.26.74-.51,1.12-.75a10.93,10.93,0,0,1-.21-4.79s.05,0,0,0a11.55,11.55,0,0,0,.28,4.71q.79-.51,1.62-1a4.85,4.85,0,0,1-.4-3.62c0-.05.1,0,.08,0a4.67,4.67,0,0,0,.08,2.46,8.68,8.68,0,0,1,.33,1.09l1.31-.75h0l0,0a6.09,6.09,0,0,1-.13-2.78c0-.05.1,0,.09,0a5.25,5.25,0,0,0,.13,2.72l1.06-.58v0s0,0,0,0a7.65,7.65,0,0,1,0-2s0,0,0,0a10.47,10.47,0,0,0,.06,1.94h0l1.21-.65a4.71,4.71,0,0,1,.09-1.59c0-.05.09,0,.08,0a4.51,4.51,0,0,0-.05,1.51l.08,0s0,0,0,0l2.25-1.23s0,0,0,0c-.7.43-1.43.84-2.17,1.26a3,3,0,0,0,1.82.7c.07,0,.08.12,0,.12a3.19,3.19,0,0,1-1.93-.76l-.1.06a.09.09,0,0,0,0,.05c0,.08-.12.1-.13,0l-1.09.61c.9.44,1.58,1.16,2.65,1.18.06,0,.07.1,0,.1a5.8,5.8,0,0,1-2.78-1.19v0c0,.08-.09.13-.12,0v0l-1.05.61a.43.43,0,0,0,0,.05h0a4.55,4.55,0,0,0,3.35,1.6,0,0,0,0,1,0,.07,3.92,3.92,0,0,1-3.51-1.65c-.42.24-.83.49-1.24.75,1,1,2.07,2.52,3.59,2.48.07,0,.08.12,0,.12-1.58,0-2.69-1.53-3.72-2.51a.07.07,0,0,1-.09,0c-.49.31-1,.63-1.45.95,1,2.28,3.77,2.83,5.91,3.52.11,0,.06.21,0,.17-2.18-.73-5-1.27-6-3.6h0a.08.08,0,0,1-.07,0l-1,.7a12.23,12.23,0,0,0,3,2.8,8.2,8.2,0,0,0,4.26,1.49,0,0,0,1,1,0,.08,7.21,7.21,0,0,1-4.2-1.32,12.28,12.28,0,0,1-3.25-2.93c-.46.36-.91.73-1.35,1.12a17.48,17.48,0,0,0,3.43,3.22,13.3,13.3,0,0,0,4.86,1.66c.08,0,.06.14,0,.12a12.24,12.24,0,0,1-4.93-1.6,19.35,19.35,0,0,1-3.55-3.21l-.07.06a.12.12,0,0,1,0,.05c-.39.37-.77.75-1.12,1.15a18.93,18.93,0,0,0,3.77,3.71c1.64,1.22,3.55,1.43,5.5,1.76a0,0,0,1,1,0,.08,10.94,10.94,0,0,1-5.32-1.48,20.2,20.2,0,0,1-4.08-3.76.15.15,0,0,1-.14,0c-.17.19-.33.38-.48.58l-.4.56a15.23,15.23,0,0,0,3.58,4.05c1.48,1.19,3.12,1.32,4.85,1.9.07,0,0,.13,0,.11-1.85-.59-3.51-.7-5.08-2a20.56,20.56,0,0,1-2-2,13.17,13.17,0,0,1-1.56-1.77c-.37.56-.71,1.14-1,1.73,2,2.34,4.34,6.3,7.87,5.51,0,0,.07.06,0,.07-3.22.79-6.26-2.76-8.1-5.19-.24.48-.47,1-.68,1.45a11,11,0,0,0,6,4.65s0,.1,0,.08a9.09,9.09,0,0,1-4-2.2,12.53,12.53,0,0,1-2.09-2.2c-.22.5-.42,1-.62,1.51a9.11,9.11,0,0,0,1.55,1.79,13.54,13.54,0,0,0,2.47,1.52c.07,0,0,.16-.05.12a12.85,12.85,0,0,1-2.52-1.51,9.49,9.49,0,0,1-1.54-1.69l-.12.31c-.44,1.15-3.12,6.85-3.48,8a5,5,0,0,1-1.49,2.69C678.15,431.32,677.48,430.74,677.65,430.22Z" transform="translate(-339.05 -102.26)"/><path class="cls-26" d="M671.63,422.09c2.6,2.55,7.35,1.46,9.88-.56a14.45,14.45,0,0,0,5.15-13.11c-.59-4-3.6-7.31-5.27-11-1.17-2.55-2.45-7.4-.66-9.62-1.49,1-2.5,3.07-3.93,4.27-2.69,2.27-5.66,4.05-8.53,6.08-4.59,3.26-9.34,6.85-8.81,13.06a13.62,13.62,0,0,0,5.51,9.47c1.43,1,5.76,2.69,6.83,1.26" transform="translate(-339.05 -102.26)"/><path class="cls-24" d="M672.73,437c-.41-1.46-.54-3-.91-4.51-.43-1.71-1.43-10-1.62-11.79,0,0,0-.11,0-.16-3.58-1.48-7.17-3.39-9-7,0-.1.11-.2.17-.11,2.16,3.4,5.28,5.14,8.81,6.73-.07-.74-.13-1.49-.17-2.24a15.19,15.19,0,0,1-4.93-3c-1.41-1.23-3.27-2.51-4.14-4.2a.06.06,0,1,1,.11-.06c.91,1.76,3,3.21,4.55,4.43a13.12,13.12,0,0,0,2.6,1.71c.58.26,1.19.45,1.78.68,0-.59,0-1.17,0-1.75-.28-.15-.54-.32-.8-.48a32.06,32.06,0,0,1-3.16-2.16,22.57,22.57,0,0,1-4.89-5.15c0-.06.05-.13.09-.07a21,21,0,0,0,4.55,4.63c.73.55,1.48,1.08,2.25,1.57a15.58,15.58,0,0,0,2,1.19c0-.79.06-1.58.15-2.37a26.89,26.89,0,0,1-4.59-3.19,8.72,8.72,0,0,1-3.16-3.86s.05-.06.07,0c.6,1.74,2.13,2.91,3.56,3.95a31.77,31.77,0,0,0,4.16,2.74q.07-.58.18-1.17c.05-.27.11-.54.17-.8-1.29-1-2.66-1.81-3.86-2.91a15.87,15.87,0,0,1-3-4.31c0-.09.1-.16.15-.07a18.31,18.31,0,0,0,3.5,4.46c1,.89,2.22,1.62,3.34,2.43.14-.64.32-1.27.51-1.9a21.09,21.09,0,0,1-6-6.08c-.09-.12.1-.27.19-.14a21.31,21.31,0,0,0,3,3.75,27.33,27.33,0,0,0,2.87,2.13v0a.16.16,0,0,1,0-.09c.24-.74.5-1.47.78-2.2-2.07-1.16-3.29-3.55-4.42-5.52,0-.06.06-.11.1-.05,1.19,2,2.41,4.08,4.42,5.33.21-.55.44-1.09.68-1.62-1.45-1.52-3-3-3.65-5,0,0,0-.05,0,0,.72,2,2.25,3.41,3.67,4.9.33-.74.68-1.48,1-2.22a6.33,6.33,0,0,1-3-3.64c0-.06.08-.11.11,0a5.86,5.86,0,0,0,1.84,2.6,11.06,11.06,0,0,1,1.13,1c.29-.59.58-1.17.89-1.76a0,0,0,0,1,0,0l0,0a8,8,0,0,1-2.12-2.92c0-.07.08-.12.11-.05a6.72,6.72,0,0,0,2.08,2.85c.24-.46.48-.92.73-1.38l0,0,0,0a9.77,9.77,0,0,1-1.36-2.17s0,0,0,0a12.42,12.42,0,0,0,1.45,2.05h0l.84-1.57a6.27,6.27,0,0,1-1-1.79,0,0,0,0,1,.09,0,6.12,6.12,0,0,0,1,1.67l.06-.11a.05.05,0,0,1,0-.05q.79-1.47,1.56-2.94s0,0,0,0c-.46,1-1,1.94-1.45,2.92a3.89,3.89,0,0,0,2.47-.54c.08-.06.18.07.09.12a4.1,4.1,0,0,1-2.63.56l-.06.13,0,.05c.08.08,0,.19-.13.11l-.73,1.44c1.28-.16,2.53.13,3.71-.61.06-.05.14.05.08.1-1.2.78-2.52.58-3.87.69l0,0c.08.07,0,.2-.09.14h0l-.7,1.4.05.05h0c1.72.28,3.24.42,4.78-.66a0,0,0,0,1,.05.07,5.06,5.06,0,0,1-5,.72l-.81,1.69c1.76.35,4.05,1.25,5.66.13.08-.05.18.07.1.13-1.68,1.17-4,.26-5.82-.07a.08.08,0,0,1-.07.1c-.31.68-.62,1.37-.9,2.07,2.7,1.75,6.11.37,8.92-.41.14,0,.21.18.07.22-2.88.76-6.32,2.18-9.06.36h0a.1.1,0,0,1,0,.1c-.2.48-.38,1-.56,1.46a15.91,15.91,0,0,0,5.29.87,10.63,10.63,0,0,0,5.67-1.43.05.05,0,0,1,.06.09A9.41,9.41,0,0,1,678,406.5a15.73,15.73,0,0,1-5.61-.87c-.25.73-.47,1.45-.67,2.19a22.75,22.75,0,0,0,6,1,17,17,0,0,0,6.44-1.67.09.09,0,0,1,.07.16,16,16,0,0,1-6.48,1.77,25.42,25.42,0,0,1-6.14-.94l0,.12a.15.15,0,0,1,0,.09c-.16.68-.3,1.36-.4,2a25,25,0,0,0,6.74,1.33c2.65.16,4.86-1,7.22-2,.06,0,.1.07,0,.1-2.18,1.12-4.31,2.25-6.83,2.19a26.16,26.16,0,0,1-7.1-1.16.19.19,0,0,1-.14.12c0,.32-.08.65-.1,1s0,.59,0,.88a19.47,19.47,0,0,0,6.76,1.83c2.46.24,4.33-.79,6.62-1.39.09,0,.11.12,0,.15-2.43.68-4.3,1.75-6.91,1.49a28.74,28.74,0,0,1-3.56-.71,17.64,17.64,0,0,1-2.95-.81,25.15,25.15,0,0,0,.13,2.6c3.8,1.13,9.19,3.73,12.45.36.05-.05.12,0,.08.06-2.92,3.15-8.76,1.47-12.48.15.08.69.18,1.38.29,2.06a14.33,14.33,0,0,0,9.82.75c.07,0,.12.08,0,.1a11.92,11.92,0,0,1-5.95.51,16.7,16.7,0,0,1-3.84-.9c.12.7.26,1.39.4,2.08a11.75,11.75,0,0,0,3,.83,16.9,16.9,0,0,0,3.76-.11c.1,0,.14.16,0,.17a18,18,0,0,1-3.81.17,13,13,0,0,1-2.87-.74l.09.41c.35,1.56,1.52,9.65,2,11.19a6.35,6.35,0,0,1,.31,4A.87.87,0,0,1,672.73,437Z" transform="translate(-339.05 -102.26)"/><path class="cls-27" d="M687.29,451H662.46a2.79,2.79,0,0,1-2.78-2.54l-1.49-16.66h33.36l-1.48,16.66A2.79,2.79,0,0,1,687.29,451Z" transform="translate(-339.05 -102.26)"/><polygon class="cls-28" points="319.5 333.52 352.14 333.52 352.5 329.5 319.14 329.5 319.5 333.52"/><polygon class="cls-27" points="318.13 332.06 353.52 332.06 354.37 325.73 317.27 325.73 318.13 332.06"/><path class="cls-29" d="M566.45,188.24l-20.52-39.82a9.22,9.22,0,0,0-16.4,0L509,188.24c-1.09,2.12-2.11,4.26-3.1,6.43h63.64C568.56,192.5,567.54,190.36,566.45,188.24Z" transform="translate(-339.05 -102.26)"/><path class="cls-30" d="M605.83,460.27a1.42,1.42,0,0,1-2.8,0c-12.7-77.54-31.21-91.6-31.21-91.6l-.06,0c2.16-11.91,4-23.6,5.39-34.7l.21,0S623.29,357.61,605.83,460.27Z" transform="translate(-339.05 -102.26)"/><path class="cls-31" d="M498.1,334s-45.92,23.63-28.47,126.3a1.42,1.42,0,0,0,2.81,0c12.69-77.54,31.19-91.61,31.19-91.61h.07c-2.16-11.91-4-23.6-5.38-34.7Z" transform="translate(-339.05 -102.26)"/><path class="cls-32" d="M505.91,194.67a149.39,149.39,0,0,0-13.48,62V378.24H583V256.65a149.24,149.24,0,0,0-13.49-62Z" transform="translate(-339.05 -102.26)"/><path class="cls-33" d="M524.27,194.67q.62-3.25,1.31-6.43l8.68-39.82c.73-3.33,2.1-5,3.47-5a9.13,9.13,0,0,0-8.2,5L509,188.24c-1.09,2.12-2.11,4.26-3.1,6.43a149.39,149.39,0,0,0-13.48,62V378.24h26.13V256.65A329.48,329.48,0,0,1,524.27,194.67Z" transform="translate(-339.05 -102.26)"/><path class="cls-33" d="M569.55,194.67c-1-2.17-2-4.31-3.1-6.43l-20.52-39.82a9.13,9.13,0,0,0-8.2-5c1.37,0,2.74,1.67,3.47,5l8.68,39.82q.69,3.18,1.32,6.43a330.32,330.32,0,0,1,5.7,62V378.24H583V256.65A149.24,149.24,0,0,0,569.55,194.67Z" transform="translate(-339.05 -102.26)"/><rect class="cls-34" x="150.87" y="275.98" width="95.61" height="9.6" rx="2.6"/><polygon class="cls-32" points="238.08 301.85 159.27 301.85 165.93 285.58 231.43 285.58 238.08 301.85"/><path class="cls-35" d="M577.14,404.11v13.64a4.28,4.28,0,0,1-.08.81,4.19,4.19,0,0,1-4.1,3.36H502.5a4.18,4.18,0,0,1-4.09-3.36,4.28,4.28,0,0,1-.08-.81V404.11Z" transform="translate(-339.05 -102.26)"/><path class="cls-36" d="M577.06,418.56a4.19,4.19,0,0,1-4.1,3.36H502.5a4.18,4.18,0,0,1-4.09-3.36Z" transform="translate(-339.05 -102.26)"/><circle class="cls-37" cx="198.68" cy="154.25" r="34.03"/><circle class="cls-38" cx="537.73" cy="256.52" r="27.97" transform="translate(-174.52 618.67) rotate(-76.72)"/><circle class="cls-39" cx="537.73" cy="256.52" r="25.5" transform="translate(-174.52 618.67) rotate(-76.72)"/><circle class="cls-40" cx="527.88" cy="246.67" r="8.08" transform="translate(-172.52 601.49) rotate(-76.72)"/><path class="cls-41" d="M552.18,235.5A25.5,25.5,0,0,1,516.72,271a25.5,25.5,0,1,0,35.46-35.46Z" transform="translate(-339.05 -102.26)"/><path class="cls-42" d="M545.4,377.59c0,35.17-5,89.33-7.67,89.33s-7.67-54.16-7.67-89.33,3.44-47,7.67-47S545.4,342.41,545.4,377.59Z" transform="translate(-339.05 -102.26)"/><rect class="cls-43" x="144.85" y="232.01" width="18.47" height="26.82"/><rect class="cls-44" x="163.31" y="232.01" width="18.47" height="26.82"/><rect class="cls-45" x="165.85" y="233.49" width="15.93" height="25.34"/><path class="cls-46" d="M520.83,340.11v.58l-.05,0a6.66,6.66,0,0,1-3.29.63H515.9a4.21,4.21,0,0,0-2.08.47,4.08,4.08,0,0,0-1.53,1.75,24.35,24.35,0,0,1-2.18,3,5.09,5.09,0,0,0-1.28,2.94,3.73,3.73,0,0,0,.86,2.23,8.39,8.39,0,0,0,1.53,1.5,3.69,3.69,0,0,0,1.9.88,1,1,0,0,0,.36-.07l.19.46a1.29,1.29,0,0,1-.55.11,4.06,4.06,0,0,1-2.21-1,9.42,9.42,0,0,1-1.62-1.59,4.23,4.23,0,0,1-1-2.53,5.53,5.53,0,0,1,1.38-3.24,25.37,25.37,0,0,0,2.14-3,4.55,4.55,0,0,1,1.73-2,5.05,5.05,0,0,1,2.54-.54h1.37a6.17,6.17,0,0,0,3-.56Z" transform="translate(-339.05 -102.26)"/><path class="cls-47" d="M520.83,336v.86a14.2,14.2,0,0,1-1.63,2.52,12.92,12.92,0,0,1-1.77,1.5l-.69.49h0l-.17.13a19.16,19.16,0,0,0-3.47,2.86,5.51,5.51,0,0,0-1.16,3.57,7.74,7.74,0,0,0,.93,3.66l-.44.24a8.12,8.12,0,0,1-1-3.9A6.06,6.06,0,0,1,512.7,344a17.06,17.06,0,0,1,3.19-2.67h0l.37-.27.32-.23a14.19,14.19,0,0,0,2.24-1.83C519.63,338.17,520.05,337,520.83,336Z" transform="translate(-339.05 -102.26)"/><rect class="cls-48" x="171.61" y="244.54" width="10.16" height="14.29"/><rect class="cls-45" x="175.04" y="247.22" width="6.74" height="0.75"/><rect class="cls-45" x="175.04" y="249.47" width="6.74" height="0.75"/><rect class="cls-45" x="175.04" y="251.72" width="6.74" height="0.75"/><rect class="cls-45" x="175.04" y="253.97" width="6.74" height="0.75"/><path class="cls-49" d="M515.08,358.91a.38.38,0,1,1-.38-.38A.38.38,0,0,1,515.08,358.91Z" transform="translate(-339.05 -102.26)"/><path class="cls-20" d="M516.6,358.91a.37.37,0,0,1-.37.38.38.38,0,1,1,0-.76A.37.37,0,0,1,516.6,358.91Z" transform="translate(-339.05 -102.26)"/><rect class="cls-48" x="165.85" y="233.49" width="2.48" height="7.58"/><rect class="cls-48" x="169.9" y="233.49" width="2.48" height="7.58"/><rect class="cls-48" x="170.84" y="241.31" width="0.6" height="1.13"/><rect class="cls-48" x="166.79" y="241.31" width="0.6" height="1.13"/><path class="cls-50" d="M480.18,359.8c-.55-2.12-16.3,1.42-20.7,2.58s-9,2.71-8.33,5.09,5.36,1.47,9.76.31S480.74,361.91,480.18,359.8Z" transform="translate(-339.05 -102.26)"/><path class="cls-50" d="M476.12,360.76c.48,2.54,4.87,1.2,6.35.68,2.41-.83,3.61-4.4,3.3-5.34s-4.95,1.74-5.21,1.59,2.52-1.14,2.14-2-3.94.48-5.15,1.55S475.83,359.16,476.12,360.76Z" transform="translate(-339.05 -102.26)"/><path class="cls-50" d="M454.09,367.25c2.36.63,7.3-12.78,9-18.63s1.95-10.75-.94-11.52-5.09,3.62-6.55,9.52S451.72,366.62,454.09,367.25Z" transform="translate(-339.05 -102.26)"/><path class="cls-20" d="M462.27,336.94c-2.19,0-3.82,2.58-4.23,7.5s0,16.09,0,16.09h8s.6-13.41.68-17.08S465.26,336.94,462.27,336.94Z" transform="translate(-339.05 -102.26)"/><path class="cls-50" d="M455.45,458.56l-.14,3.05a.78.78,0,0,0,.78.78h8.2a.77.77,0,0,0,.47-1.39,12.31,12.31,0,0,0-4.57-2.29c-.14,0-1.31-25.71-2.55-25.73S455.45,458.56,455.45,458.56Z" transform="translate(-339.05 -102.26)"/><path class="cls-50" d="M437.55,458.38v2.88a2.91,2.91,0,0,0,1.19,1.62c2.07.88,6,.36,6.19-.35s-.95-2.28-1.84-3.4h0c-.57-.72-1-1.25-1-1.25S440.92,433,439.75,433,437.55,458.38,437.55,458.38Z" transform="translate(-339.05 -102.26)"/><path class="cls-50" d="M457.47,419.23c3.43,0,5.28-19,5.43-27.17s-1.24-14.57-5.43-14.57-5.58,6.44-5.43,14.57S454,419.23,457.47,419.23Z" transform="translate(-339.05 -102.26)"/><path class="cls-50" d="M457.47,459.67c3,0,3.88-26.85,3.88-32.89s-.47-12.41-3.88-12.41-3.87,6.37-3.87,12.41S454.43,459.67,457.47,459.67Z" transform="translate(-339.05 -102.26)"/><path class="cls-50" d="M442.76,419.22c3.41.31,7-18.48,7.89-26.57s.09-14.62-4.08-15-6.15,5.9-6.74,14S439.35,418.9,442.76,419.22Z" transform="translate(-339.05 -102.26)"/><path class="cls-50" d="M439.57,459.51c3,.28,5.81-26.41,6.36-32.42s.67-12.41-2.73-12.72-4.44,6-5,12S436.54,459.24,439.57,459.51Z" transform="translate(-339.05 -102.26)"/><path class="cls-50" d="M440.1,383.76h22.63l.93-36.4L462,337.1l-11-3.37-6.33,1.2a7.43,7.43,0,0,0-6,7.56l2.3,25.75Z" transform="translate(-339.05 -102.26)"/><path class="cls-50" d="M448.64,328.86v7.31s1.55.93,5.16.93c1.95,0,2.39-.93,2.39-.93v-2.7Z" transform="translate(-339.05 -102.26)"/><path class="cls-51" d="M457.25,322.26c.74.21,1,2.69.91,2.67s-.61-2-1.26-2.28S457.25,322.26,457.25,322.26Z" transform="translate(-339.05 -102.26)"/><path class="cls-51" d="M460,322.35c-.41.5-.09,2.32-.07,2.48s.2-2.19.2-2.19Z" transform="translate(-339.05 -102.26)"/><path class="cls-52" d="M454.11,322.36v.29s3.12,0,3.14,0,.11-.28,0-.38C456.65,321.75,454.11,322.36,454.11,322.36Z" transform="translate(-339.05 -102.26)"/><path class="cls-52" d="M462.27,322.35v.31s-2.18,0-2.2,0a.44.44,0,0,1,0-.38C460.49,321.75,462.27,322.35,462.27,322.35Z" transform="translate(-339.05 -102.26)"/><path class="cls-52" d="M455.27,324.31a.63.63,0,1,0,.63-.63A.63.63,0,0,0,455.27,324.31Z" transform="translate(-339.05 -102.26)"/><path class="cls-52" d="M454.6,323.8a2.81,2.81,0,0,1,1.3-.36,2.85,2.85,0,0,1,1.3.36Z" transform="translate(-339.05 -102.26)"/><path class="cls-52" d="M460.44,324.31a.63.63,0,1,0,.63-.63A.63.63,0,0,0,460.44,324.31Z" transform="translate(-339.05 -102.26)"/><path class="cls-52" d="M460.16,323.8a1.33,1.33,0,0,1,1.82,0Z" transform="translate(-339.05 -102.26)"/><path class="cls-53" d="M459.21,327.47c-.63,0-1.14-.05-1.14.12s.51.38,1.14.38,1.14-.21,1.14-.38S459.84,327.47,459.21,327.47Z" transform="translate(-339.05 -102.26)"/><path class="cls-51" d="M459.21,330c-.46,0-.83,0-.83.09s.37.42.83.42.84-.29.84-.42S459.67,330,459.21,330Z" transform="translate(-339.05 -102.26)"/><path class="cls-51" d="M461.33,329a.14.14,0,0,1,0,.28,9.27,9.27,0,0,1-2.14.3,9.82,9.82,0,0,1-2.18-.3.15.15,0,0,1-.1-.18.16.16,0,0,1,.18-.1,9.34,9.34,0,0,0,2.1.3,8.78,8.78,0,0,0,2.06-.3Z" transform="translate(-339.05 -102.26)"/><path class="cls-50" d="M447.79,323.4c0,.26,0,.51,0,.75s0,.17,0,.27c-.18,4.34,2.61,9,6.81,9.62l.09,0h.15c.89.12,4.14.38,5.33-.93a11.08,11.08,0,0,0,2.63-6.28,24.71,24.71,0,0,0-.35-3.16c0-.61.33-2.51.33-3.33,0-3.88-2.58-7.72-7.21-7.72C448.65,312.64,447.59,318.73,447.79,323.4Z" transform="translate(-339.05 -102.26)"/><path class="cls-45" d="M451,323.8c.31-1.59,1.61-2.18,1.78-3.14a17.44,17.44,0,0,1,.63-3.25c.38-.94,3.83-.73,5-.53s3.48.32,4.45-.17,1.71-2.84.83-3.89l-.41.41a6.91,6.91,0,0,0-3.42-2.17l.33,1a44.3,44.3,0,0,0-6.72-.29,7.06,7.06,0,0,0-3.39,1.84,2.39,2.39,0,0,0-3,1.43c-.51,1.22-2.76,7.27,1.62,15l1.41-6.07Z" transform="translate(-339.05 -102.26)"/><path class="cls-50" d="M449.83,323.46c-.56-.13-1.86-.58-1.62,1.35.41,3.33,2.37,3.12,2.37,3.12-.12-.47-.29-1.14-.44-1.91.54-.32-.14-.73-.17-1.12a.61.61,0,0,1,0-.24A11.13,11.13,0,0,1,449.83,323.46Z" transform="translate(-339.05 -102.26)"/><path class="cls-51" d="M449.94,324.66s-.61-.59-1.07-.35-.14,1.3.23,1.94.77.69.84.51-.74-.55-.45-.85.58-.35.55-.53S449.94,324.66,449.94,324.66Z" transform="translate(-339.05 -102.26)"/><path class="cls-45" d="M451.07,322.05c-.18,1.26,0,5.6,0,5.6l-.57,0-.89-4.58Z" transform="translate(-339.05 -102.26)"/><path class="cls-51" d="M457.2,334.14c-2.1.1-4.91-1.95-5.68-2.89a9.32,9.32,0,0,1-1.18-3.33,1.22,1.22,0,0,1-1.09-.55s.05,1,.46,1.4.68.43.77.69.57,3.55,2.31,4.47S457.2,334.14,457.2,334.14Z" transform="translate(-339.05 -102.26)"/><path class="cls-45" d="M455.31,459.13V462a.52.52,0,0,0,.52.52H465a.83.83,0,0,0,.5-1.5,34.33,34.33,0,0,0-5.05-2.75c-.38.33-.95,1.35-1.61,1.48A18.66,18.66,0,0,1,455.31,459.13Z" transform="translate(-339.05 -102.26)"/><path class="cls-45" d="M437.55,458.76v2.5a2.91,2.91,0,0,0,1.19,1.62c2.07.88,6,.36,6.19-.35s-.95-2.28-1.84-3.4h0c-.43-.37-2.61-.17-3,0a8,8,0,0,1-1.4.67A7.85,7.85,0,0,1,437.55,458.76Z" transform="translate(-339.05 -102.26)"/><polygon class="cls-45" points="112.44 285.82 112.44 287.57 104.08 354.41 97.59 354.41 100.5 285.82 112.44 285.82"/><polygon class="cls-45" points="124.24 285.82 121.53 354.41 115.14 354.41 112.44 287.57 112.44 285.82 124.24 285.82"/><polygon class="cls-54" points="118.15 232.15 117.14 234.05 117.14 233.93 117.14 232.07 117.53 232.01 118.15 232.15"/><path class="cls-20" d="M452.08,334.1l-1,3c-1.55-1.24-3.62-2.69-3.62-2.69l1.2-1.94Z" transform="translate(-339.05 -102.26)"/><polygon class="cls-20" points="118.36 233.13 118.71 234.84 117.14 234.09 117.14 234.05 118.15 232.15 118.36 233.13"/><path class="cls-54" d="M457.76,337.1l-.35-1.71,4.86,1.55a26.48,26.48,0,0,1,2.14,8.84c.08,1.37.07,5.3,0,10.25-.13,12.69-.55,32.05-.55,32.05H439.05s.48-14.5.67-18.91-.17-11.57-.17-11.57l.79-1.72.71.15s3.83-8.87,5-13.66c1-4.13-.54-6.8-3.46-7.1a22.14,22.14,0,0,1,4.88-.86s2.07,1.45,3.62,2.69l1-3,2.62,5.35,1.49-3.26v.16Z" transform="translate(-339.05 -102.26)"/><path class="cls-50" d="M442.47,366.78c2.47,0,4-14.31,4.14-20.44s-.78-11-3.79-11-4.08,4.81-4,10.94S440,366.75,442.47,366.78Z" transform="translate(-339.05 -102.26)"/><path class="cls-45" d="M482.12,361a13.42,13.42,0,0,0-1.7-5.79l1.68-.94a15.37,15.37,0,0,0-3.24-4l-1.28,1.44a13.6,13.6,0,0,0-5.29-2.91l.53-1.84h0a15.74,15.74,0,0,0-4.22-.59c-.3,0-.61,0-.91,0l.12,1.92A13.54,13.54,0,0,0,462,350l-.93-1.68a15.58,15.58,0,0,0-4.05,3.24l1.44,1.28a13.47,13.47,0,0,0-2.91,5.29l-1.84-.53v0a15.35,15.35,0,0,0-.59,4.22c0,.3,0,.6,0,.9l1.92-.11a13.54,13.54,0,0,0,1.69,5.79l-1.68.93a15.42,15.42,0,0,0,3.24,4.05l1.28-1.44a13.38,13.38,0,0,0,5.28,2.92l-.53,1.84.05,0a15.83,15.83,0,0,0,4.22.58l.94,0-.12-1.92a13.65,13.65,0,0,0,5.79-1.7l.94,1.67a15.37,15.37,0,0,0,4-3.24l-1.44-1.28a13.45,13.45,0,0,0,2.9-5.29l1.85.52h0a15.46,15.46,0,0,0,.59-4.22c0-.31,0-.62,0-.92Zm-16.91,12.7h0l.1-.33Zm11.26-9.65a8.16,8.16,0,1,1,.32-2.24A7.93,7.93,0,0,1,476.47,364.05Z" transform="translate(-339.05 -102.26)"/><path class="cls-50" d="M468.53,376c.88-2-13.62-9.06-17.79-10.9s-8.7-3.47-9.69-1.22,3.27,4.49,7.44,6.33S467.64,378,468.53,376Z" transform="translate(-339.05 -102.26)"/><path class="cls-50" d="M464.75,374.25c-1.21,2.28,3.06,4,4.54,4.5,2.4.85,3.29-1.81,3.63-2.74s-2.69-.68-2.79-1,2.69.25,2.92-.65-3.38-2.08-5-2S465.52,372.82,464.75,374.25Z" transform="translate(-339.05 -102.26)"/><path class="cls-20" d="M442.56,335.27c-2.19,0-3.82,2.58-4.23,7.49s0,16.1,0,16.1h8s.6-13.41.68-17.08S445.55,335.27,442.56,335.27Z" transform="translate(-339.05 -102.26)"/><path class="cls-32" d="M435.64,334.39H406.07a.38.38,0,0,1-.37-.38V294.2a.37.37,0,0,1,.37-.37h29.57a.37.37,0,0,1,.38.37v24.16l6.84,7.4a.38.38,0,0,1-.28.63H436V334A.38.38,0,0,1,435.64,334.39Zm-29.19-.75h28.82v-7.58a.37.37,0,0,1,.16-.36.49.49,0,0,1,.23-.06h6.06l-6.34-6.86,0,0a.38.38,0,0,1-.07-.25V294.58H406.45Z" transform="translate(-339.05 -102.26)"/><path class="cls-32" d="M430.54,300.12H411.3a.38.38,0,0,1,0-.75h19.24a.38.38,0,1,1,0,.75Z" transform="translate(-339.05 -102.26)"/><path class="cls-32" d="M430.52,304.22H411.28a.37.37,0,0,1-.37-.37.38.38,0,0,1,.37-.38h19.24a.38.38,0,0,1,.38.38A.37.37,0,0,1,430.52,304.22Z" transform="translate(-339.05 -102.26)"/><path class="cls-32" d="M430.51,308.33H411.27a.38.38,0,1,1,0-.75h19.24a.38.38,0,0,1,0,.75Z" transform="translate(-339.05 -102.26)"/><path class="cls-32" d="M430.49,312.43H411.25a.38.38,0,1,1,0-.75h19.24a.38.38,0,0,1,0,.75Z" transform="translate(-339.05 -102.26)"/><path class="cls-32" d="M430.47,316.53H411.23a.38.38,0,0,1,0-.75h19.24a.38.38,0,1,1,0,.75Z" transform="translate(-339.05 -102.26)"/><path class="cls-32" d="M430.45,320.63H411.21a.37.37,0,0,1-.37-.37.38.38,0,0,1,.37-.38h19.24a.38.38,0,0,1,.38.38A.37.37,0,0,1,430.45,320.63Z" transform="translate(-339.05 -102.26)"/><path class="cls-32" d="M430.44,324.74H411.2a.38.38,0,1,1,0-.75h19.24a.38.38,0,0,1,0,.75Z" transform="translate(-339.05 -102.26)"/><path class="cls-32" d="M423.1,328.84H411.18a.38.38,0,1,1,0-.75H423.1a.38.38,0,0,1,0,.75Z" transform="translate(-339.05 -102.26)"/><path class="cls-45" d="M634.94,321.64c.8,6.48,1.62,21.18,1.62,21.18l-16.87,0,1.23-23,6.16-3.18Z" transform="translate(-339.05 -102.26)"/><path class="cls-50" d="M615.47,369.17c2.37.4,6-13.15,7.08-19s.94-10.67-2-11.17-4.65,4-5.54,9.9S613.1,368.76,615.47,369.17Z" transform="translate(-339.05 -102.26)"/><path class="cls-50" d="M596.65,376.12c1,1.89,12.57-3.51,15.76-5.18s6.42-3.72,5.31-5.84-4.63-.64-7.82,1S595.66,374.23,596.65,376.12Z" transform="translate(-339.05 -102.26)"/><path class="cls-50" d="M620.18,420.31c-3.34.13-5.88-18.29-6.35-26.19s.64-14.21,4.71-14.37,5.68,6,5.84,13.94S623.51,420.17,620.18,420.31Z" transform="translate(-339.05 -102.26)"/><path class="cls-50" d="M621.77,459.76c-2.95.12-4.83-26.1-5.06-32s0-12.07,3.28-12.21,4,6,4.25,11.91S624.73,459.64,621.77,459.76Z" transform="translate(-339.05 -102.26)"/><path class="cls-50" d="M635.73,420.3c-3.32.3-6.8-18-7.67-25.84s-.09-14.22,4-14.59,6,5.74,6.56,13.63S639.05,420,635.73,420.3Z" transform="translate(-339.05 -102.26)"/><path class="cls-50" d="M638.83,459.64c-3,.27-5.65-25.84-6.19-31.69s-.65-12.06,2.66-12.37,4.31,5.83,4.85,11.68S641.77,459.37,638.83,459.64Z" transform="translate(-339.05 -102.26)"/><path class="cls-50" d="M637.41,385.81H614s2-10.42,2.14-14.18c.09-3.08,1.32-12.9,1.32-12.9s-2.83-4.26-2.81-6.49c0-3.36,5.71-12.56,5.71-12.56l8.23-2.53,5.59,1.33c3.5.67,3.6,4,3.6,7.55,0,10.76-4.51,18.05-4.1,24.22C633.93,374.2,637.41,385.81,637.41,385.81Z" transform="translate(-339.05 -102.26)"/><path class="cls-50" d="M641.51,368.81c-2.34.55-6.81-12.73-8.29-18.51s-1.61-10.6,1.24-11.27,4.9,3.69,6.17,9.52S643.85,368.25,641.51,368.81Z" transform="translate(-339.05 -102.26)"/><path class="cls-50" d="M631.25,330.25v8.4s-1.51.9-5,.9c-1.9,0-2.32-.9-2.32-.9V336Z" transform="translate(-339.05 -102.26)"/><path class="cls-51" d="M624,324.92c-.73.2-1,2.62-.88,2.61s.58-1.93,1.22-2.23S624,324.92,624,324.92Z" transform="translate(-339.05 -102.26)"/><path class="cls-51" d="M621.09,324.92c.49.38.32,2.35.3,2.51s-.32-2.23-.32-2.23Z" transform="translate(-339.05 -102.26)"/><path class="cls-52" d="M626,326.92a.61.61,0,0,1-.62.61.61.61,0,0,1-.61-.61.61.61,0,0,1,.61-.62A.62.62,0,0,1,626,326.92Z" transform="translate(-339.05 -102.26)"/><path class="cls-52" d="M626.64,326.42a2.5,2.5,0,0,0-2.55,0Z" transform="translate(-339.05 -102.26)"/><path class="cls-52" d="M620.92,326.92a.61.61,0,0,1-.61.61.61.61,0,0,1-.62-.61.62.62,0,0,1,.62-.62A.61.61,0,0,1,620.92,326.92Z" transform="translate(-339.05 -102.26)"/><path class="cls-52" d="M621.2,326.42a1.54,1.54,0,0,0-.89-.35,1.49,1.49,0,0,0-.89.35Z" transform="translate(-339.05 -102.26)"/><path class="cls-53" d="M622.12,330.26c.62,0,1.12-.05,1.12.12s-.5.37-1.12.37-1.11-.2-1.11-.37S621.51,330.26,622.12,330.26Z" transform="translate(-339.05 -102.26)"/><path class="cls-51" d="M622.12,332.78c.46,0,.82,0,.82.08s-.36.41-.82.41-.81-.29-.81-.41S621.67,332.78,622.12,332.78Z" transform="translate(-339.05 -102.26)"/><path class="cls-51" d="M624.46,331.72a.15.15,0,0,1,.14.11.15.15,0,0,1-.1.17,8.82,8.82,0,0,1-2.09.3,9.36,9.36,0,0,1-2.13-.3.15.15,0,0,1-.1-.17.14.14,0,0,1,.18-.1,9.16,9.16,0,0,0,2,.29,8.6,8.6,0,0,0,2-.29Z" transform="translate(-339.05 -102.26)"/><path class="cls-55" d="M624,325.2c-.26-.13.13-.42.64-.4s1.87-.06,2.54.57c0,0-.07.05-.38-.06S624.22,325.3,624,325.2Z" transform="translate(-339.05 -102.26)"/><path class="cls-55" d="M621.14,325.2c.18-.13-.09-.42-.44-.4s-1.26-.06-1.72.57c0,0,0,.05.26-.06S621,325.3,621.14,325.2Z" transform="translate(-339.05 -102.26)"/><path class="cls-50" d="M631.4,325.83c0,.26,0,.5,0,.73s0,.17,0,.26c.18,4.25-.27,7.53-5.09,9.23-.88.11-3.95.78-5.11-.5-1.36-1.51-2.44-5.38-2.44-6.73v-.06c0-1.32.21-1.68.21-2.45,0-.59-.32-2.44-.33-3.25a9.93,9.93,0,0,1,1.09-4.1,6.17,6.17,0,0,1,6-3.45C632.45,315.51,631.59,321.27,631.4,325.83Z" transform="translate(-339.05 -102.26)"/><path class="cls-45" d="M627.2,319.35c-2.84,2.46-7.94,2.39-8.48,5.36l.2,1.32s-.73-1.64-.9-2.21c-.36-1.24.41-3.85,1.88-5.73,2.81-3.57,8.73-4.35,11.19-1,0,0,3.42-.67,3.85,4.56.3,3.6-3.69,16.15-3.69,16.15a4.44,4.44,0,0,1-1.23-2.12c-1.19-5-2.37-13.83-3-17.28" transform="translate(-339.05 -102.26)"/><path class="cls-56" d="M629,322.33v0" transform="translate(-339.05 -102.26)"/><path class="cls-51" d="M624.75,336.26a9.16,9.16,0,0,0,4.9-2.28,3,3,0,0,1-1.48,1.89A7.42,7.42,0,0,1,624.75,336.26Z" transform="translate(-339.05 -102.26)"/><path class="cls-50" d="M623.82,458.55l.15,3.05a.79.79,0,0,1-.79.78H615c-.75,0-1.76-1.37-1.13-1.75a58.76,58.76,0,0,1,5.23-2.68c.13-.06,1.31-25,2.55-25S623.82,458.55,623.82,458.55Z" transform="translate(-339.05 -102.26)"/><path class="cls-50" d="M640.69,458.37v2.87a5.51,5.51,0,0,1-2,1.65c-2.07.88-5.27.34-5.42-.37s2-3.28,2-3.29a8.26,8.26,0,0,0,.89-1.36s1.11-24.93,2.29-24.9S640.69,458.37,640.69,458.37Z" transform="translate(-339.05 -102.26)"/><path class="cls-45" d="M613.66,462.38h10.07a.24.24,0,0,0,.24-.24v-1.58c-2,0-6.66.08-6.93,0a5.32,5.32,0,0,1-1.37-1.35,25.62,25.62,0,0,0-2.55,1.56A.88.88,0,0,0,613.66,462.38Z" transform="translate(-339.05 -102.26)"/><path class="cls-45" d="M638.73,462.89a5.51,5.51,0,0,0,2-1.65v-1.3l-2,1.17c-1.39-1.47-4-1.89-4.6-.61h0a3.46,3.46,0,0,0-.82,2C633.46,463.23,636.66,463.77,638.73,462.89Z" transform="translate(-339.05 -102.26)"/><path class="cls-57" d="M638.26,387.25s1.71,17.45,1.82,28.93a155.54,155.54,0,0,1,1.53,15.89c.34,8.27-.81,23.86-.81,23.86h-5.06l-8.55-64.85h-2.27v64.85h-5.85s-3.46-26.07-5.64-68.68Z" transform="translate(-339.05 -102.26)"/><path class="cls-58" d="M613,387.93l3.86-29.27a15.48,15.48,0,0,1-2.51-6.92c0-.82,1.13-3.72,2.36-6.49.36-.83-.73-1.48-.73-1.48a9.82,9.82,0,0,1,2.06-4c1.12-1.13,5.86-1.1,5.86-1.1-2.74.79-3.39,4.58-3,4.87s5.68.21,6.66,0,2.75-4.95,5.33-5.33a5.93,5.93,0,0,1,3.65,1c1.91,1.19,2.68,4.56,2.68,4.56s-7-.19-6.6,4l0,.31c.56,4.22,3.51,11.68,3.51,11.68a42.12,42.12,0,0,0-1.19,9.43c0,5,4.25,18.84,4.25,18.84Z" transform="translate(-339.05 -102.26)"/><path class="cls-50" d="M636.92,393.75c-2.11-.33-.2-15.91.5-20.28s1.77-8.93,4.13-8.55,1.94,5,1.24,9.41S639,394.09,636.92,393.75Z" transform="translate(-339.05 -102.26)"/><path class="cls-50" d="M637.46,389.73c2.51.21,1.62,4.59,1.27,6.08-.58,2.41-3,4.8-4,4.59s.69-5.63.52-5.86-1.22,2.33-2.08,2,.09-3.86,1-5.13S635.89,389.6,637.46,389.73Z" transform="translate(-339.05 -102.26)"/><path class="cls-50" d="M599.31,375.39c.62,2.44-3.64,2.95-5.13,3.25-1.94.38-3.2-2-3.31-3s3-.5,3.18-.74-2.6-.38-2.61-1.29,3.67-1.18,5.17-.73S598.92,373.86,599.31,375.39Z" transform="translate(-339.05 -102.26)"/><rect class="cls-45" x="586" y="374.19" width="13.71" height="2.51" transform="translate(308.64 -426.41) rotate(62.14)"/><polygon class="cls-45" points="251.08 268.02 247.95 267.9 246.49 265.14 247.31 263.83 248.79 266.61 251.21 265.34 249.73 262.55 251.27 262.61 252.73 265.37 251.08 268.02"/><polygon class="cls-45" points="256.28 278.08 259.41 278.2 260.87 280.96 260.04 282.27 258.57 279.49 256.15 280.76 257.62 283.55 256.08 283.49 254.62 280.73 256.28 278.08"/><path class="cls-50" d="M596.61,372.89c-1.5-.45-5.18-.18-5.17.73s2.77,1.05,2.61,1.29l3.65-1.61A6.22,6.22,0,0,0,596.61,372.89Z" transform="translate(-339.05 -102.26)"/><path class="cls-50" d="M590.94,375.39a2.48,2.48,0,0,1,1.77-.63c.55,0,1.18.88,1.63,1.73s-1.34,1.92-1.34,1.92l-1.29-1.28Z" transform="translate(-339.05 -102.26)"/><path class="cls-32" d="M679.84,363.14H650.27a.37.37,0,0,1-.37-.37V338.6l-6.84-7.39a.38.38,0,0,1-.07-.41.39.39,0,0,1,.35-.22h6.56V323a.37.37,0,0,1,.37-.38h29.57a.38.38,0,0,1,.38.38v39.81A.38.38,0,0,1,679.84,363.14Zm-29.19-.75h28.82V323.33H650.65v7.58a.4.4,0,0,1-.17.36.46.46,0,0,1-.23.06h-6.06l6.34,6.86,0,0a.38.38,0,0,1,.08.25Z" transform="translate(-339.05 -102.26)"/><path class="cls-32" d="M674.67,341.18H655.43a.37.37,0,0,1-.38-.37.38.38,0,0,1,.38-.38h19.24a.38.38,0,0,1,.37.38A.37.37,0,0,1,674.67,341.18Z" transform="translate(-339.05 -102.26)"/><path class="cls-32" d="M674.69,345.29H655.45a.38.38,0,1,1,0-.75h19.24a.38.38,0,0,1,0,.75Z" transform="translate(-339.05 -102.26)"/><path class="cls-32" d="M674.7,349.39H655.46a.38.38,0,0,1,0-.75H674.7a.38.38,0,1,1,0,.75Z" transform="translate(-339.05 -102.26)"/><path class="cls-32" d="M674.72,353.49H655.48a.36.36,0,0,1-.37-.37.37.37,0,0,1,.37-.38h19.24a.38.38,0,0,1,.38.38A.37.37,0,0,1,674.72,353.49Z" transform="translate(-339.05 -102.26)"/><path class="cls-32" d="M674.74,357.6H662.82a.38.38,0,0,1-.38-.38.37.37,0,0,1,.38-.37h11.92a.36.36,0,0,1,.37.37A.37.37,0,0,1,674.74,357.6Z" transform="translate(-339.05 -102.26)"/><path class="cls-32" d="M674.67,336.7H655.43a.38.38,0,0,1-.38-.38v-9.4a.38.38,0,0,1,.38-.38h19.24a.38.38,0,0,1,.37.38v9.4A.38.38,0,0,1,674.67,336.7ZM655.8,336h18.49v-8.66H655.8Z" transform="translate(-339.05 -102.26)"/></g></g></svg>